<svg width="18" height="18" viewBox="0 0 18 18" fill="none" xmlns="http://www.w3.org/2000/svg">
<g clip-path="url(#clip0_19_215)">
<path d="M13.7812 0H4.21875C1.8888 0 0 1.8888 0 4.21875V13.7812C0 16.1112 1.8888 18 4.21875 18H13.7812C16.1112 18 18 16.1112 18 13.7812V4.21875C18 1.8888 16.1112 0 13.7812 0Z" fill="#6EE7B7"/>
<path d="M8.69999 10.7108H5.90999L5.34 12.4733C5.32499 12.5408 5.265 12.5858 5.1975 12.5783H3.7875C3.70499 12.5783 3.68249 12.5333 3.70499 12.4433L6.12 5.49084C6.1425 5.41584 6.165 5.33334 6.195 5.24334C6.22499 5.08584 6.24 4.92084 6.24 4.75584C6.2325 4.71834 6.2625 4.68084 6.3 4.67334H6.3225H8.24247C8.30252 4.67334 8.33247 4.69584 8.33999 4.73334L11.0775 12.4584C11.1 12.5408 11.0775 12.5783 11.0025 12.5783H9.43497C9.38252 12.5858 9.32999 12.5484 9.31502 12.4958L8.69999 10.7108ZM6.345 9.18833H8.24999C8.20499 9.03083 8.14502 8.84331 8.07752 8.64833C8.01002 8.44583 7.94252 8.22835 7.87502 8.00335C7.79999 7.77083 7.73249 7.54583 7.65747 7.31331C7.58252 7.08085 7.51502 6.86334 7.45497 6.64584C7.39499 6.43584 7.34247 6.24084 7.29002 6.06084H7.27497C7.20747 6.38334 7.12499 6.70584 7.02 7.02834C6.9075 7.38833 6.795 7.76331 6.67499 8.13835C6.57 8.52085 6.4575 8.87333 6.345 9.18833Z" fill="#020305"/>
<path d="M12.75 5.98601C12.5025 5.99352 12.2625 5.89601 12.0825 5.72352C11.91 5.53601 11.82 5.28851 11.8275 5.03352C11.82 4.77852 11.9175 4.53852 12.0975 4.36601C12.2775 4.19352 12.5175 4.10352 12.765 4.10352C13.0575 4.10352 13.2825 4.19352 13.4475 4.36601C13.6125 4.54601 13.7025 4.78602 13.695 5.03352C13.7025 5.28851 13.6125 5.53601 13.4325 5.72352C13.26 5.90352 13.005 6.00102 12.75 5.98601ZM11.91 12.496V6.72102C11.91 6.64602 11.94 6.61601 12.0075 6.61601H13.4925C13.56 6.61601 13.59 6.65352 13.59 6.72102V12.496C13.59 12.5785 13.56 12.616 13.4925 12.616H12.0225C11.9475 12.616 11.91 12.571 11.91 12.496Z" fill="#020305"/>
</g>
<defs>
<clipPath id="clip0_19_215">
<rect width="18" height="18" fill="white"/>
</clipPath>
</defs>
</svg>
